<?xml version="1.0" encoding="UTF-8"?><svg id="Layer_2" xmlns="http://www.w3.org/2000/svg" viewBox="0 0 793.06 113.04"><defs><style>.cls-1{fill:#f6a418;}.cls-2{fill:#e54c26;}.cls-3{fill:#ffe200;}.cls-4{fill:#aac0f7;}</style></defs><g id="Layer_1-2"><g><path class="cls-2" d="m217.64,83.31h8.94v-43.27h-8.94v-6.39h51.54v19.42h-5.61c-3.24-11.16-5-13.12-12.01-13.12h-13.67v19.25h4.47c5.78,0,6.75-1.02,7.89-8.35h5.61v22.83h-5.61c-.96-7.66-2.1-8.77-7.89-8.77h-4.47v18.4h10.25v6.39h-30.5v-6.39Z"/><path class="cls-2" d="m268.21,70.19c0-12.09,8.68-20.61,20.95-20.61s20.95,8.18,20.95,20.27-8.68,20.7-20.95,20.7-20.95-8.26-20.95-20.36Zm30.68-.17c0-10.82-3.68-15.33-10.08-15.33s-9.38,4.6-9.38,15.33,3.59,15.42,10.08,15.42,9.38-4.69,9.38-15.42Z"/><path class="cls-2" d="m313.17,83.39h6.14v-26.83h-6.14v-6.3h15.95v10.13c3.86-6.98,8.41-10.73,14.99-10.73,7.45,0,11.48,5.11,11.48,12.95v20.78h6.22v6.3h-21.82v-6.3h5.43v-18.4c0-2.81-.7-5.03-2.1-6.39-1.05-1.11-2.54-1.62-4.47-1.62-4.56,0-9.29,4.34-9.29,11.33v15.08h5.35v6.3h-21.74v-6.3Z"/><path class="cls-2" d="m378.21,40.04v10.65h13.15v5.88h-13.15v21.8c0,3.75,1.14,5.71,4.56,5.71,2.54,0,4.21-2.21,5.87-7.07l4.47,1.53c-2.1,8.43-6.66,12.01-13.32,12.01-7.89,0-11.83-4.26-11.83-11.84v-22.14h-7.63v-5.88h7.8v-9.54l10.08-1.11Z"/><path class="cls-2" d="m394.16,79.99c0-2.73.96-5.11,2.98-7.07,2.98-2.9,7.27-4.17,15.86-5.37,5-.68,5.7-.77,5.7-2.04v-3.83c0-5.03-2.46-6.98-7.71-6.98-2.37,0-4.3.43-6.14,1.45,1.4.77,2.37,2.38,2.37,4.26,0,2.73-2.19,4.94-5.61,4.94-3.86,0-5.87-2.64-5.87-5.45,0-6.64,8.24-10.31,17.7-10.31,10.52,0,15.43,4.51,15.43,12.78v19.08c0,1.87.7,2.64,2.45,2.64,1.14,0,2.19-1.11,2.98-3.49l3.59,1.62c-1.93,5.62-5,7.92-9.82,7.92-4.21,0-7.89-2.21-8.15-7.5h-.44c-2.45,5.03-7.71,7.67-13.23,7.67-7.36,0-12.09-4.17-12.09-10.31Zm24.54-4.17v-5.54c-.79.34-1.75.51-3.95.85-7.54,1.19-9.82,2.56-9.82,7.07,0,3.41,1.84,5.88,6.05,5.88,3.86,0,7.71-3.41,7.71-8.26Z"/><path class="cls-2" d="m436.4,83.39h6.14v-26.83h-6.14v-6.3h15.95v10.13c3.86-6.98,8.41-10.73,14.99-10.73,7.45,0,11.48,5.11,11.48,12.95v20.78h6.22v6.3h-21.82v-6.3h5.43v-18.4c0-2.81-.7-5.03-2.1-6.39-1.05-1.11-2.54-1.62-4.47-1.62-4.56,0-9.29,4.34-9.29,11.33v15.08h5.35v6.3h-21.74v-6.3Z"/><path class="cls-2" d="m486.98,79.99c0-2.73.96-5.11,2.98-7.07,2.98-2.9,7.27-4.17,15.86-5.37,5-.68,5.7-.77,5.7-2.04v-3.83c0-5.03-2.46-6.98-7.71-6.98-2.37,0-4.3.43-6.14,1.45,1.4.77,2.37,2.38,2.37,4.26,0,2.73-2.19,4.94-5.61,4.94-3.86,0-5.87-2.64-5.87-5.45,0-6.64,8.24-10.31,17.7-10.31,10.52,0,15.43,4.51,15.43,12.78v19.08c0,1.87.7,2.64,2.45,2.64,1.14,0,2.19-1.11,2.98-3.49l3.59,1.62c-1.93,5.62-5,7.92-9.82,7.92-4.21,0-7.89-2.21-8.15-7.5h-.44c-2.45,5.03-7.71,7.67-13.23,7.67-7.36,0-12.09-4.17-12.09-10.31Zm24.54-4.17v-5.54c-.79.34-1.75.51-3.95.85-7.54,1.19-9.82,2.56-9.82,7.07,0,3.41,1.84,5.88,6.05,5.88,3.86,0,7.71-3.41,7.71-8.26Z"/><path class="cls-2" d="m546.49,40.04h-7.54v-6.39h28.48v6.39h-8.59l14.11,39.01h.7l14.64-39.01h-7.27v-6.39h21.12v6.39h-6.31l-19.81,50h-10.25l-19.28-50Z"/><path class="cls-2" d="m601.26,83.39h7.01v-26.83h-7.01v-6.3h17.27v33.13h7.01v6.3h-24.28v-6.3Zm4.91-46.42c0-3.75,2.72-6.47,6.66-6.47s6.57,2.47,6.57,6.22-2.63,6.47-6.57,6.47-6.66-2.56-6.66-6.22Z"/><path class="cls-2" d="m629.83,56.56h-5.52v-6.3h23.14v6.3h-6.57l9.03,25.21h.35l9.29-25.21h-5.44v-6.3h17.35v6.3h-5.08l-13.58,33.56h-9.82l-13.15-33.56Z"/><path class="cls-2" d="m671.38,79.99c0-2.73.96-5.11,2.98-7.07,2.98-2.9,7.27-4.17,15.86-5.37,5-.68,5.7-.77,5.7-2.04v-3.83c0-5.03-2.46-6.98-7.71-6.98-2.37,0-4.3.43-6.14,1.45,1.4.77,2.37,2.38,2.37,4.26,0,2.73-2.19,4.94-5.61,4.94-3.86,0-5.87-2.64-5.87-5.45,0-6.64,8.24-10.31,17.7-10.31,10.52,0,15.43,4.51,15.43,12.78v19.08c0,1.87.7,2.64,2.45,2.64,1.14,0,2.19-1.11,2.98-3.49l3.59,1.62c-1.93,5.62-5,7.92-9.82,7.92-4.21,0-7.89-2.21-8.15-7.5h-.44c-2.45,5.03-7.71,7.67-13.23,7.67-7.36,0-12.09-4.17-12.09-10.31Zm24.54-4.17v-5.54c-.79.34-1.75.51-3.95.85-7.54,1.19-9.81,2.56-9.81,7.07,0,3.41,1.84,5.88,6.05,5.88,3.86,0,7.71-3.41,7.71-8.26Z"/><path class="cls-2" d="m713.63,70.62c0-12.35,9.03-21.04,21.56-21.04,10.08,0,16.39,6.3,16.39,11.75,0,4.17-2.19,7.16-6.22,7.16-3.77,0-5.96-2.56-5.96-5.62,0-2.47,1.93-4.51,3.59-5.19-1.23-1.79-3.68-3.15-7.54-3.15-5.96,0-10.78,5.37-10.78,15.16,0,9.11,3.94,14.65,11.57,14.65,4.82,0,8.5-2.73,10.34-7.92h5.35c-1.93,8.69-8.24,14.14-17.79,14.14-12.97,0-20.51-8.35-20.51-19.93Z"/><path class="cls-2" d="m765.25,70.96c.35,9.62,4.47,13.54,11.74,13.54,4.82,0,8.33-2.04,10.52-7.07h5.26c-2.02,8.35-8.06,13.12-18.06,13.12-12.79,0-20.33-8.52-20.33-20.1s8.68-20.87,20.51-20.87c12.8,0,18.58,9.97,18.14,21.38h-27.78Zm.09-4.51h17.53c-.52-7.67-2.98-11.84-8.5-11.84-5,0-8.33,3.15-9.03,11.84Z"/></g><g><path class="cls-2" d="m83.63.8L.88,80.52c-1.85,1.78-.59,4.91,1.98,4.91h0c.77,0,1.5-.31,2.04-.86l24.3-24.87c1.12-1.15,2.96-1.15,4.08,0l23.1,23.64c1.12,1.15,2.96,1.15,4.08,0l23.1-23.64c1.12-1.15,2.96-1.15,4.08,0l23.1,23.64c1.12,1.15,2.96,1.15,4.08,0l23.1-23.64c1.12-1.15,2.96-1.15,4.08,0l24.3,24.87c.54.55,1.27.86,2.04.86h0c2.57,0,3.83-3.13,1.98-4.91L87.59.8c-1.11-1.07-2.86-1.07-3.96,0Z"/><path class="cls-4" d="m109.37,87.68l-22.94-23.48c-.45-.46-1.2-.46-1.65,0l-22.94,23.48c-.66.67-1.02,1.57-1.02,2.51v19.25c0,1.99,1.61,3.6,3.6,3.6h11.96c.33,0,.6-.27.6-.6v-15.02c0-4.77,3.87-8.63,8.63-8.63h0c4.77,0,8.63,3.87,8.63,8.63v15.02c0,.33.27.6.6.6h11.96c1.98,0,3.59-1.61,3.59-3.59v-19.26c0-.94-.37-1.84-1.02-2.51Z"/><path class="cls-1" d="m163.74,87.68l-22.94-23.48c-.45-.46-1.2-.46-1.65,0l-22.94,23.48c-.66.67-1.02,1.57-1.02,2.51v19.25c0,1.99,1.61,3.6,3.6,3.6h11.96c.33,0,.6-.27.6-.6v-15.02c0-4.77,3.87-8.63,8.63-8.63h0c4.77,0,8.63,3.87,8.63,8.63v15.02c0,.33.27.6.6.6h11.96c1.98,0,3.59-1.61,3.59-3.59v-19.26c0-.94-.37-1.84-1.02-2.51Z"/><path class="cls-3" d="m55.01,87.68l-22.94-23.48c-.45-.46-1.2-.46-1.65,0l-22.94,23.48c-.66.67-1.02,1.57-1.02,2.51v19.25c0,1.99,1.61,3.6,3.6,3.6h11.96c.33,0,.6-.27.6-.6v-15.02c0-4.77,3.87-8.63,8.63-8.63h0c4.77,0,8.63,3.87,8.63,8.63v15.02c0,.33.27.6.6.6h11.96c1.98,0,3.59-1.61,3.59-3.59v-19.26c0-.94-.37-1.84-1.02-2.51Z"/><g><path class="cls-3" d="m85.61,29.93h0c4.85,0,8.79,3.94,8.79,8.79v7.43h-17.57v-7.43c0-4.85,3.94-8.79,8.79-8.79Z"/><path class="cls-4" d="m100.93,29.94h0c.66,0,1.2.54,1.2,1.2v15.01h-8.79v-8.62c0-4.19,3.4-7.59,7.59-7.59Z"/><path class="cls-4" d="m69.09,29.94h8.79v15.01c0,.66-.54,1.2-1.2,1.2h0c-4.19,0-7.59-3.4-7.59-7.59v-8.62h0Z" transform="translate(146.97 76.1) rotate(-180)"/></g></g></g></svg>